<mxfile host="app.diagrams.net" modified="2021-07-15T15:55:20.897Z" agent="5.0 (Windows NT 10.0; Win64; x64) AppleWebKit/537.36 (KHTML, like Gecko) Chrome/91.0.4472.124 Safari/537.36" etag="UpnQ2LGd1ClNKLDiQ1W-" version="14.8.6" type="github">
  <diagram id="Om2DZw1UcQGsGAtShYp0" name="Page-1">
    <mxGraphModel dx="2844" dy="1524" grid="1" gridSize="10" guides="1" tooltips="1" connect="1" arrows="1" fold="1" page="1" pageScale="1" pageWidth="827" pageHeight="1169" math="0" shadow="0">
      <root>
        <mxCell id="0" />
        <mxCell id="1" parent="0" />
        <mxCell id="n7KmVJZOwPfS1huEhb-Q-2" value="" style="rounded=0;whiteSpace=wrap;html=1;" vertex="1" parent="1">
          <mxGeometry x="30" y="40" width="770" height="1770" as="geometry" />
        </mxCell>
        <mxCell id="n7KmVJZOwPfS1huEhb-Q-7" style="edgeStyle=orthogonalEdgeStyle;rounded=0;orthogonalLoop=1;jettySize=auto;html=1;endArrow=open;endFill=0;startArrow=none;startFill=0;" edge="1" parent="1" source="n7KmVJZOwPfS1huEhb-Q-3" target="n7KmVJZOwPfS1huEhb-Q-5">
          <mxGeometry relative="1" as="geometry" />
        </mxCell>
        <mxCell id="n7KmVJZOwPfS1huEhb-Q-3" value="" style="ellipse;whiteSpace=wrap;html=1;aspect=fixed;fillColor=#000000;" vertex="1" parent="1">
          <mxGeometry x="394" y="60" width="40" height="40" as="geometry" />
        </mxCell>
        <mxCell id="n7KmVJZOwPfS1huEhb-Q-9" style="edgeStyle=orthogonalEdgeStyle;rounded=0;orthogonalLoop=1;jettySize=auto;html=1;exitX=0.5;exitY=1;exitDx=0;exitDy=0;entryX=0.5;entryY=0;entryDx=0;entryDy=0;fontSize=8;startArrow=none;startFill=0;endArrow=open;endFill=0;" edge="1" parent="1" source="n7KmVJZOwPfS1huEhb-Q-5" target="n7KmVJZOwPfS1huEhb-Q-8">
          <mxGeometry relative="1" as="geometry" />
        </mxCell>
        <mxCell id="n7KmVJZOwPfS1huEhb-Q-5" value="enter questioaire name" style="rounded=1;whiteSpace=wrap;html=1;fillColor=#FFFFFF;" vertex="1" parent="1">
          <mxGeometry x="354" y="130" width="120" height="60" as="geometry" />
        </mxCell>
        <mxCell id="n7KmVJZOwPfS1huEhb-Q-10" value="[yes]" style="edgeStyle=orthogonalEdgeStyle;rounded=0;orthogonalLoop=1;jettySize=auto;html=1;entryX=0;entryY=0.5;entryDx=0;entryDy=0;fontSize=8;startArrow=none;startFill=0;endArrow=open;endFill=0;exitX=0;exitY=0.5;exitDx=0;exitDy=0;" edge="1" parent="1" source="n7KmVJZOwPfS1huEhb-Q-8" target="n7KmVJZOwPfS1huEhb-Q-5">
          <mxGeometry relative="1" as="geometry" />
        </mxCell>
        <mxCell id="n7KmVJZOwPfS1huEhb-Q-17" value="[no]" style="edgeStyle=orthogonalEdgeStyle;rounded=0;orthogonalLoop=1;jettySize=auto;html=1;exitX=0.5;exitY=1;exitDx=0;exitDy=0;entryX=0.5;entryY=0;entryDx=0;entryDy=0;fontSize=8;startArrow=none;startFill=0;endArrow=open;endFill=0;" edge="1" parent="1" source="n7KmVJZOwPfS1huEhb-Q-8" target="n7KmVJZOwPfS1huEhb-Q-11">
          <mxGeometry x="0.0062" relative="1" as="geometry">
            <mxPoint as="offset" />
          </mxGeometry>
        </mxCell>
        <mxCell id="n7KmVJZOwPfS1huEhb-Q-8" value="questionaire name already in use?" style="rhombus;whiteSpace=wrap;html=1;fillColor=#FFFFFF;fontSize=8;" vertex="1" parent="1">
          <mxGeometry x="375" y="220" width="79" height="80" as="geometry" />
        </mxCell>
        <mxCell id="n7KmVJZOwPfS1huEhb-Q-14" style="edgeStyle=orthogonalEdgeStyle;rounded=0;orthogonalLoop=1;jettySize=auto;html=1;exitX=0.5;exitY=1;exitDx=0;exitDy=0;entryX=0.5;entryY=0;entryDx=0;entryDy=0;fontSize=8;startArrow=none;startFill=0;endArrow=open;endFill=0;" edge="1" parent="1" source="n7KmVJZOwPfS1huEhb-Q-11" target="n7KmVJZOwPfS1huEhb-Q-13">
          <mxGeometry relative="1" as="geometry" />
        </mxCell>
        <mxCell id="n7KmVJZOwPfS1huEhb-Q-11" value="enter questionaire start date" style="rounded=1;whiteSpace=wrap;html=1;fontSize=8;fillColor=#FFFFFF;" vertex="1" parent="1">
          <mxGeometry x="354" y="350" width="120" height="60" as="geometry" />
        </mxCell>
        <mxCell id="n7KmVJZOwPfS1huEhb-Q-21" style="edgeStyle=orthogonalEdgeStyle;rounded=0;orthogonalLoop=1;jettySize=auto;html=1;exitX=0.5;exitY=1;exitDx=0;exitDy=0;entryX=0.5;entryY=0;entryDx=0;entryDy=0;fontSize=8;startArrow=none;startFill=0;endArrow=open;endFill=0;" edge="1" parent="1" source="n7KmVJZOwPfS1huEhb-Q-12" target="n7KmVJZOwPfS1huEhb-Q-20">
          <mxGeometry relative="1" as="geometry" />
        </mxCell>
        <mxCell id="n7KmVJZOwPfS1huEhb-Q-12" value="enter questionaire end date" style="rounded=1;whiteSpace=wrap;html=1;fontSize=8;fillColor=#FFFFFF;" vertex="1" parent="1">
          <mxGeometry x="354" y="570" width="120" height="60" as="geometry" />
        </mxCell>
        <mxCell id="n7KmVJZOwPfS1huEhb-Q-18" value="[no]" style="edgeStyle=orthogonalEdgeStyle;rounded=0;orthogonalLoop=1;jettySize=auto;html=1;exitX=0;exitY=0.5;exitDx=0;exitDy=0;entryX=0;entryY=0.5;entryDx=0;entryDy=0;fontSize=8;startArrow=none;startFill=0;endArrow=open;endFill=0;" edge="1" parent="1" source="n7KmVJZOwPfS1huEhb-Q-13" target="n7KmVJZOwPfS1huEhb-Q-11">
          <mxGeometry relative="1" as="geometry" />
        </mxCell>
        <mxCell id="n7KmVJZOwPfS1huEhb-Q-19" value="[yes]" style="edgeStyle=orthogonalEdgeStyle;rounded=0;orthogonalLoop=1;jettySize=auto;html=1;entryX=0.5;entryY=0;entryDx=0;entryDy=0;fontSize=8;startArrow=none;startFill=0;endArrow=open;endFill=0;" edge="1" parent="1" source="n7KmVJZOwPfS1huEhb-Q-13" target="n7KmVJZOwPfS1huEhb-Q-12">
          <mxGeometry relative="1" as="geometry" />
        </mxCell>
        <mxCell id="n7KmVJZOwPfS1huEhb-Q-13" value="date valid?" style="rhombus;whiteSpace=wrap;html=1;fontSize=8;fillColor=#FFFFFF;" vertex="1" parent="1">
          <mxGeometry x="374" y="440" width="80" height="80" as="geometry" />
        </mxCell>
        <mxCell id="n7KmVJZOwPfS1huEhb-Q-22" style="edgeStyle=orthogonalEdgeStyle;rounded=0;orthogonalLoop=1;jettySize=auto;html=1;entryX=0;entryY=0.5;entryDx=0;entryDy=0;fontSize=8;startArrow=none;startFill=0;endArrow=open;endFill=0;exitX=0;exitY=0.5;exitDx=0;exitDy=0;" edge="1" parent="1" source="n7KmVJZOwPfS1huEhb-Q-20" target="n7KmVJZOwPfS1huEhb-Q-12">
          <mxGeometry relative="1" as="geometry" />
        </mxCell>
        <mxCell id="n7KmVJZOwPfS1huEhb-Q-24" value="[yes]" style="edgeStyle=orthogonalEdgeStyle;rounded=0;orthogonalLoop=1;jettySize=auto;html=1;exitX=0.5;exitY=1;exitDx=0;exitDy=0;entryX=0.5;entryY=0;entryDx=0;entryDy=0;fontSize=8;startArrow=none;startFill=0;endArrow=open;endFill=0;" edge="1" parent="1" source="n7KmVJZOwPfS1huEhb-Q-20" target="n7KmVJZOwPfS1huEhb-Q-23">
          <mxGeometry relative="1" as="geometry" />
        </mxCell>
        <mxCell id="n7KmVJZOwPfS1huEhb-Q-20" value="date valid?" style="rhombus;whiteSpace=wrap;html=1;fontSize=8;fillColor=#FFFFFF;" vertex="1" parent="1">
          <mxGeometry x="374" y="660" width="80" height="80" as="geometry" />
        </mxCell>
        <mxCell id="n7KmVJZOwPfS1huEhb-Q-26" style="edgeStyle=orthogonalEdgeStyle;rounded=0;orthogonalLoop=1;jettySize=auto;html=1;fontSize=8;startArrow=none;startFill=0;endArrow=open;endFill=0;" edge="1" parent="1" source="n7KmVJZOwPfS1huEhb-Q-23" target="n7KmVJZOwPfS1huEhb-Q-25">
          <mxGeometry relative="1" as="geometry" />
        </mxCell>
        <mxCell id="n7KmVJZOwPfS1huEhb-Q-23" value="enter question" style="rounded=1;whiteSpace=wrap;html=1;fontSize=8;fillColor=#FFFFFF;" vertex="1" parent="1">
          <mxGeometry x="354" y="770" width="120" height="60" as="geometry" />
        </mxCell>
        <mxCell id="n7KmVJZOwPfS1huEhb-Q-30" style="edgeStyle=orthogonalEdgeStyle;rounded=0;orthogonalLoop=1;jettySize=auto;html=1;exitX=0.5;exitY=1;exitDx=0;exitDy=0;entryX=0.5;entryY=0;entryDx=0;entryDy=0;fontSize=8;startArrow=none;startFill=0;endArrow=open;endFill=0;" edge="1" parent="1" source="n7KmVJZOwPfS1huEhb-Q-25" target="n7KmVJZOwPfS1huEhb-Q-27">
          <mxGeometry relative="1" as="geometry" />
        </mxCell>
        <mxCell id="n7KmVJZOwPfS1huEhb-Q-25" value="enter answer possibility" style="rounded=1;whiteSpace=wrap;html=1;fontSize=8;fillColor=#FFFFFF;" vertex="1" parent="1">
          <mxGeometry x="354" y="890" width="120" height="60" as="geometry" />
        </mxCell>
        <mxCell id="n7KmVJZOwPfS1huEhb-Q-28" value="[no]" style="edgeStyle=orthogonalEdgeStyle;rounded=0;orthogonalLoop=1;jettySize=auto;html=1;entryX=1;entryY=0.5;entryDx=0;entryDy=0;fontSize=8;startArrow=none;startFill=0;endArrow=open;endFill=0;exitX=1;exitY=0.5;exitDx=0;exitDy=0;" edge="1" parent="1" source="n7KmVJZOwPfS1huEhb-Q-27" target="n7KmVJZOwPfS1huEhb-Q-25">
          <mxGeometry relative="1" as="geometry">
            <Array as="points">
              <mxPoint x="540" y="1030" />
              <mxPoint x="540" y="920" />
            </Array>
          </mxGeometry>
        </mxCell>
        <mxCell id="n7KmVJZOwPfS1huEhb-Q-34" value="[yes]" style="edgeStyle=orthogonalEdgeStyle;rounded=0;orthogonalLoop=1;jettySize=auto;html=1;exitX=0.5;exitY=1;exitDx=0;exitDy=0;entryX=0.5;entryY=0;entryDx=0;entryDy=0;fontSize=8;startArrow=none;startFill=0;endArrow=open;endFill=0;" edge="1" parent="1" source="n7KmVJZOwPfS1huEhb-Q-27" target="n7KmVJZOwPfS1huEhb-Q-32">
          <mxGeometry relative="1" as="geometry" />
        </mxCell>
        <mxCell id="n7KmVJZOwPfS1huEhb-Q-27" value="already more than&lt;br&gt;two answers?" style="rhombus;whiteSpace=wrap;html=1;fontSize=8;fillColor=#FFFFFF;" vertex="1" parent="1">
          <mxGeometry x="374" y="990" width="80" height="80" as="geometry" />
        </mxCell>
        <mxCell id="n7KmVJZOwPfS1huEhb-Q-33" value="[yes]" style="edgeStyle=orthogonalEdgeStyle;rounded=0;orthogonalLoop=1;jettySize=auto;html=1;exitX=0;exitY=0.5;exitDx=0;exitDy=0;entryX=0;entryY=0.434;entryDx=0;entryDy=0;entryPerimeter=0;fontSize=8;startArrow=none;startFill=0;endArrow=open;endFill=0;" edge="1" parent="1" source="n7KmVJZOwPfS1huEhb-Q-32" target="n7KmVJZOwPfS1huEhb-Q-25">
          <mxGeometry relative="1" as="geometry">
            <Array as="points">
              <mxPoint x="290" y="1160" />
              <mxPoint x="290" y="916" />
            </Array>
          </mxGeometry>
        </mxCell>
        <mxCell id="n7KmVJZOwPfS1huEhb-Q-42" value="[no]" style="edgeStyle=orthogonalEdgeStyle;rounded=0;orthogonalLoop=1;jettySize=auto;html=1;exitX=0.5;exitY=1;exitDx=0;exitDy=0;entryX=0.5;entryY=0;entryDx=0;entryDy=0;fontSize=8;startArrow=none;startFill=0;endArrow=open;endFill=0;" edge="1" parent="1" source="n7KmVJZOwPfS1huEhb-Q-32" target="n7KmVJZOwPfS1huEhb-Q-35">
          <mxGeometry relative="1" as="geometry" />
        </mxCell>
        <mxCell id="n7KmVJZOwPfS1huEhb-Q-32" value="enter more answer&lt;br&gt;possibilities?" style="rhombus;whiteSpace=wrap;html=1;fontSize=8;fillColor=#FFFFFF;" vertex="1" parent="1">
          <mxGeometry x="374" y="1120" width="80" height="80" as="geometry" />
        </mxCell>
        <mxCell id="n7KmVJZOwPfS1huEhb-Q-43" style="edgeStyle=orthogonalEdgeStyle;rounded=0;orthogonalLoop=1;jettySize=auto;html=1;exitX=0.5;exitY=1;exitDx=0;exitDy=0;entryX=0.5;entryY=0;entryDx=0;entryDy=0;fontSize=8;startArrow=none;startFill=0;endArrow=open;endFill=0;" edge="1" parent="1" source="n7KmVJZOwPfS1huEhb-Q-35" target="n7KmVJZOwPfS1huEhb-Q-36">
          <mxGeometry relative="1" as="geometry" />
        </mxCell>
        <mxCell id="n7KmVJZOwPfS1huEhb-Q-48" value="[no]" style="edgeStyle=orthogonalEdgeStyle;rounded=0;orthogonalLoop=1;jettySize=auto;html=1;entryX=1;entryY=0.5;entryDx=0;entryDy=0;fontSize=8;startArrow=none;startFill=0;endArrow=open;endFill=0;exitX=1;exitY=0.5;exitDx=0;exitDy=0;" edge="1" parent="1" source="n7KmVJZOwPfS1huEhb-Q-36" target="n7KmVJZOwPfS1huEhb-Q-23">
          <mxGeometry relative="1" as="geometry">
            <Array as="points">
              <mxPoint x="650" y="1370" />
              <mxPoint x="650" y="800" />
            </Array>
          </mxGeometry>
        </mxCell>
        <mxCell id="n7KmVJZOwPfS1huEhb-Q-35" value="finish question" style="rounded=1;whiteSpace=wrap;html=1;fontSize=8;fillColor=#FFFFFF;" vertex="1" parent="1">
          <mxGeometry x="354" y="1240" width="120" height="60" as="geometry" />
        </mxCell>
        <mxCell id="n7KmVJZOwPfS1huEhb-Q-44" value="[yes]" style="edgeStyle=orthogonalEdgeStyle;rounded=0;orthogonalLoop=1;jettySize=auto;html=1;exitX=0.5;exitY=1;exitDx=0;exitDy=0;entryX=0.5;entryY=0;entryDx=0;entryDy=0;fontSize=8;startArrow=none;startFill=0;endArrow=open;endFill=0;" edge="1" parent="1" source="n7KmVJZOwPfS1huEhb-Q-36" target="n7KmVJZOwPfS1huEhb-Q-37">
          <mxGeometry relative="1" as="geometry" />
        </mxCell>
        <mxCell id="n7KmVJZOwPfS1huEhb-Q-36" value="already 5 questions?" style="rhombus;whiteSpace=wrap;html=1;fontSize=8;fillColor=#FFFFFF;" vertex="1" parent="1">
          <mxGeometry x="375" y="1330" width="80" height="80" as="geometry" />
        </mxCell>
        <mxCell id="n7KmVJZOwPfS1huEhb-Q-45" value="[no]" style="edgeStyle=orthogonalEdgeStyle;rounded=0;orthogonalLoop=1;jettySize=auto;html=1;exitX=0.5;exitY=1;exitDx=0;exitDy=0;entryX=0.5;entryY=0;entryDx=0;entryDy=0;fontSize=8;startArrow=none;startFill=0;endArrow=open;endFill=0;" edge="1" parent="1" source="n7KmVJZOwPfS1huEhb-Q-37" target="n7KmVJZOwPfS1huEhb-Q-38">
          <mxGeometry relative="1" as="geometry" />
        </mxCell>
        <mxCell id="n7KmVJZOwPfS1huEhb-Q-47" value="[yes]" style="edgeStyle=orthogonalEdgeStyle;rounded=0;orthogonalLoop=1;jettySize=auto;html=1;exitX=0;exitY=0.5;exitDx=0;exitDy=0;entryX=0;entryY=0.5;entryDx=0;entryDy=0;fontSize=8;startArrow=none;startFill=0;endArrow=open;endFill=0;" edge="1" parent="1" source="n7KmVJZOwPfS1huEhb-Q-37" target="n7KmVJZOwPfS1huEhb-Q-23">
          <mxGeometry relative="1" as="geometry">
            <Array as="points">
              <mxPoint x="120" y="1500" />
              <mxPoint x="120" y="800" />
            </Array>
          </mxGeometry>
        </mxCell>
        <mxCell id="n7KmVJZOwPfS1huEhb-Q-37" value="want more questions?" style="rhombus;whiteSpace=wrap;html=1;fontSize=8;fillColor=#FFFFFF;" vertex="1" parent="1">
          <mxGeometry x="375" y="1460" width="80" height="80" as="geometry" />
        </mxCell>
        <mxCell id="n7KmVJZOwPfS1huEhb-Q-49" style="edgeStyle=orthogonalEdgeStyle;rounded=0;orthogonalLoop=1;jettySize=auto;html=1;exitX=0.5;exitY=1;exitDx=0;exitDy=0;entryX=0.5;entryY=0;entryDx=0;entryDy=0;fontSize=8;startArrow=none;startFill=0;endArrow=open;endFill=0;" edge="1" parent="1" source="n7KmVJZOwPfS1huEhb-Q-38" target="n7KmVJZOwPfS1huEhb-Q-39">
          <mxGeometry relative="1" as="geometry" />
        </mxCell>
        <mxCell id="n7KmVJZOwPfS1huEhb-Q-38" value="finish questionaire" style="rounded=1;whiteSpace=wrap;html=1;fontSize=8;fillColor=#FFFFFF;" vertex="1" parent="1">
          <mxGeometry x="355" y="1600" width="120" height="60" as="geometry" />
        </mxCell>
        <mxCell id="n7KmVJZOwPfS1huEhb-Q-39" value="" style="ellipse;whiteSpace=wrap;html=1;aspect=fixed;fontSize=8;fillColor=#FFFFFF;" vertex="1" parent="1">
          <mxGeometry x="385" y="1694" width="60" height="60" as="geometry" />
        </mxCell>
        <mxCell id="n7KmVJZOwPfS1huEhb-Q-40" value="" style="ellipse;whiteSpace=wrap;html=1;aspect=fixed;fontSize=8;fillColor=#0A0A0A;" vertex="1" parent="1">
          <mxGeometry x="395" y="1704" width="40" height="40" as="geometry" />
        </mxCell>
      </root>
    </mxGraphModel>
  </diagram>
</mxfile>
